<svg width="19" height="19" xmlns="http://www.w3.org/2000/svg"><path d="M9.734 13.905V19h-.468v-5.095h.468zm3.434-1.352l3.253 3.3-.33.336-3.253-3.301.33-.335zm-7.336.237l.33.335-3.02 3.064-.33-.335 3.02-3.064zM9.5 5.848c1.932 0 3.503 1.595 3.503 3.555 0 1.96-1.571 3.554-3.503 3.554-1.932 0-3.503-1.594-3.503-3.554 0-1.96 1.571-3.555 3.503-3.555zm0 .474c-1.674 0-3.036 1.382-3.036 3.08 0 1.7 1.362 3.081 3.036 3.081s3.036-1.382 3.036-3.08c0-1.699-1.362-3.08-3.036-3.08zm-4.67 3.08v.475H.274v-.474H4.83zm13.895 0v.475h-4.788v-.474h4.788zm-2.867-6.786l.33.335-3.253 3.302-.33-.335 3.253-3.302zm-12.482 0L6.512 5.8l-.33.335-3.136-3.183.33-.335zM9.734.28V4.9h-.468V.28h.468z" fill="#6E6E6E" fill-rule="evenodd"/></svg>