<svg width="29" height="29" fill="none" xmlns="http://www.w3.org/2000/svg"><path fill-rule="evenodd" clip-rule="evenodd" d="M14.133 5.14h.734V0h-.734v5.14zm.367 2.202a6.799 6.799 0 00-6.791 6.79 6.799 6.799 0 006.791 6.792 6.799 6.799 0 006.791-6.791A6.799 6.799 0 0014.5 7.342zm0 14.316c-4.15 0-7.525-3.376-7.525-7.525 0-4.15 3.375-7.525 7.525-7.525s7.525 3.375 7.525 7.525-3.375 7.525-7.525 7.525zM14.867 29h-.734v-5.14h.734V29zM0 14.867h5.14v-.734H0v.734zm29 0h-5.14v-.734H29v.734zM7.988 7.773L4.355 4.14l.519-.52 3.634 3.634-.52.52zm13.239 13.239l3.634 3.633.519-.519-3.634-3.633-.52.519zm-16.72 3.633l-.52-.519 3.634-3.633.52.519-3.634 3.633zM20.86 7.255l.519.518 3.633-3.633-.519-.52-3.633 3.634z" fill="#6E6E6E"/></svg>