<svg width="22" height="17" xmlns="http://www.w3.org/2000/svg"><path d="M15.743 14.488a.235.235 0 01.008.324c-1.286 1.396-3.02 2.164-4.884 2.164-1.801 0-3.495-.725-4.769-2.042a.235.235 0 010-.325.217.217 0 01.315 0c1.19 1.23 2.772 1.908 4.454 1.908 1.74 0 3.361-.718 4.562-2.021a.217.217 0 01.314-.008zm1.905-12.361c1.024.893 2.035 3.247 3.013 5.524.153.356.305.709.455 1.053.757 1.733.923 3.076.506 4.104-.504 1.242-1.792 1.82-2.96 2.265a1.653 1.653 0 01-1.564-.21 1.792 1.792 0 01-.734-1.453V2.79c0-.326.189-.626.48-.766a.727.727 0 01.804.103zM5 2.024c.292.14.48.44.48.766v10.62c0 .58-.274 1.123-.734 1.454-.293.211-.63.32-.97.32-.199 0-.399-.037-.594-.11-1.168-.446-2.456-1.024-2.96-2.266-.416-1.028-.251-2.37.506-4.104.15-.344.302-.697.455-1.053l.268-.622c.894-2.07 1.815-4.09 2.745-4.902a.727.727 0 01.804-.103zm12.174.382a.343.343 0 00-.144.034.393.393 0 00-.222.35v10.62c0 .435.198.828.544 1.077a1.21 1.21 0 001.155.155c1.13-.43 2.27-.94 2.704-2.012.367-.904.203-2.126-.5-3.737-.151-.345-.304-.699-.457-1.055l-.262-.61c-.875-2.027-1.772-4-2.632-4.75a.276.276 0 00-.186-.072zm-12.505 0a.276.276 0 00-.186.072c-.946.825-1.936 3.13-2.894 5.36-.153.356-.305.71-.456 1.055-.703 1.61-.867 2.833-.5 3.737.434 1.072 1.573 1.582 2.703 2.012a1.21 1.21 0 001.156-.155 1.31 1.31 0 00.544-1.077V2.79c0-.179-.12-.3-.223-.35a.343.343 0 00-.144-.034zm6.253 8.522c.853 0 1.544.476 1.544 1.065 0 .587-.691 1.064-1.544 1.064-.854 0-1.545-.477-1.545-1.064 0-.589.691-1.065 1.545-1.065zM7.662 7.912c.284 0 .515.238.515.532 0 .294-.23.532-.515.532a.524.524 0 01-.515-.532c0-.294.23-.532.515-.532zm6.522 0c.284 0 .515.238.515.532 0 .294-.231.532-.515.532a.524.524 0 01-.515-.532c0-.294.23-.532.515-.532zM10.978.23c1.802 0 3.495.725 4.77 2.042a.235.235 0 010 .324.217.217 0 01-.315 0C14.243 1.366 12.66.69 10.978.69c-1.74 0-3.36.718-4.562 2.021a.218.218 0 01-.314.008.235.235 0 01-.008-.324C7.38.998 9.114.23 10.978.23z" fill="#6E6E6E" fill-rule="evenodd"/></svg>