<svg width="16" height="16" xmlns="http://www.w3.org/2000/svg"><path d="M1.793 3.922l.434.294a6.974 6.974 0 00-1.14 3.836c0 3.824 3.066 6.934 6.834 6.934a6.72 6.72 0 003.953-1.277l.302.432a7.235 7.235 0 01-4.255 1.375c-4.056 0-7.356-3.348-7.356-7.464 0-1.477.425-2.905 1.228-4.13zm-.55-3.02l13.725 13.926a.267.267 0 010 .375.258.258 0 01-.37 0L.875 1.276a.267.267 0 010-.375.258.258 0 01.368 0zM7.92.587c4.055 0 7.355 3.348 7.355 7.464 0 1.52-.448 2.984-1.295 4.23l-.43-.3a6.966 6.966 0 001.203-3.93c0-3.824-3.065-6.934-6.833-6.934-1.27 0-2.51.356-3.585 1.03l-.274-.451A7.262 7.262 0 017.92.588z" fill="#6E6E6E" fill-rule="evenodd"/></svg>