<svg width="18" height="19" xmlns="http://www.w3.org/2000/svg"><path d="M10.494 0c4.055 0 7.355 3.3 7.355 7.355v.72a7.337 7.337 0 01-4.435 6.743v1.564c0 1.031-.838 1.87-1.87 1.87h-5.24a1.872 1.872 0 01-1.87-1.87v-1.564A7.337 7.337 0 010 8.075v-.72C0 3.3 3.3 0 7.355 0h3.139zm0 .514h-3.14a6.848 6.848 0 00-6.84 6.841v.72A6.827 6.827 0 004.79 14.41c.096.04.16.134.16.238v1.735c0 .748.608 1.356 1.355 1.356l.549-.001v-1.751a.257.257 0 11.515 0l-.001 1.751h2.711v-1.751a.257.257 0 11.514 0v1.751h.953c.747 0 1.355-.607 1.355-1.355v-1.735c0-.104.063-.199.16-.238a6.827 6.827 0 004.275-6.334v-.72a6.848 6.848 0 00-6.841-6.84zM5.498 7.256A2.275 2.275 0 017.77 9.53a2.275 2.275 0 01-2.272 2.273 2.275 2.275 0 01-2.273-2.273 2.275 2.275 0 012.273-2.273zm6.853 0a2.275 2.275 0 012.273 2.273 2.275 2.275 0 01-2.273 2.273 2.275 2.275 0 01-2.273-2.273 2.275 2.275 0 012.273-2.273zm-6.853.515a1.76 1.76 0 00-1.759 1.758c0 .97.79 1.759 1.759 1.759.97 0 1.758-.79 1.758-1.759a1.76 1.76 0 00-1.758-1.758zm6.853 0a1.76 1.76 0 00-1.759 1.758c0 .97.79 1.759 1.759 1.759.97 0 1.758-.79 1.758-1.759a1.76 1.76 0 00-1.758-1.758z" fill="#6E6E6E" fill-rule="evenodd"/></svg>