<svg width="16" height="15" xmlns="http://www.w3.org/2000/svg"><path d="M5.987.053c.233.22 5.72 5.413 5.72 8.618 0 3.26-2.626 5.912-5.853 5.912C2.626 14.583 0 11.931 0 8.671 0 5.466 5.487.272 5.72.053c.076-.07.192-.07.267 0zm4.292 0C10.513.273 16 5.466 16 8.67c0 3.26-2.626 5.912-5.854 5.912-.18 0-.362-.008-.542-.025a.196.196 0 01-.176-.214.195.195 0 01.212-.178c.168.015.338.023.506.023 3.013 0 5.464-2.475 5.464-5.518 0-2.77-4.615-7.378-5.464-8.202-.225.219-.717.704-1.313 1.346a.194.194 0 01-.276.01.198.198 0 01-.009-.28C9.376.654 10.008.06 10.013.054c.075-.07.191-.07.266 0zM5.854.469C5.004 1.294.39 5.902.39 8.671c0 3.043 2.451 5.518 5.464 5.518 3.012 0 5.463-2.475 5.463-5.518 0-2.769-4.614-7.377-5.463-8.202z" fill="#6E6E6E" fill-rule="evenodd"/></svg>