<svg width="24" height="16" xmlns="http://www.w3.org/2000/svg"><path d="M7.013.058c.273.24 6.701 5.939 6.701 9.456 0 3.576-3.076 6.486-6.857 6.486C3.077 16 0 13.09 0 9.514 0 5.997 6.428.299 6.701.058a.238.238 0 01.312 0zm5.028 0c.274.24 6.702 5.939 6.702 9.456 0 3.576-3.076 6.486-6.857 6.486-.21 0-.425-.01-.635-.027a.22.22 0 01-.207-.235.225.225 0 01.249-.196c.196.017.396.026.593.026 3.529 0 6.4-2.716 6.4-6.054 0-3.039-5.406-8.095-6.4-9-.265.24-.841.773-1.539 1.477a.238.238 0 01-.323.01.208.208 0 01-.01-.305l.298-.298C11.13.587 11.724.064 11.73.058a.238.238 0 01.311 0zm5.258 0C17.572.298 24 5.997 24 9.514 24 13.09 20.924 16 17.143 16c-.21 0-.424-.01-.635-.027a.22.22 0 01-.207-.235.225.225 0 01.249-.196c.197.017.396.026.593.026 3.529 0 6.4-2.716 6.4-6.054 0-3.039-5.406-8.095-6.4-9-.265.24-.84.773-1.538 1.477a.238.238 0 01-.324.01.208.208 0 01-.01-.305l.298-.298C16.388.587 16.98.064 16.987.058a.238.238 0 01.312 0zM6.857.515c-.995.904-6.4 5.96-6.4 8.999 0 3.338 2.871 6.054 6.4 6.054 3.53 0 6.4-2.716 6.4-6.054 0-3.039-5.405-8.095-6.4-9z" fill="#6E6E6E" fill-rule="evenodd"/></svg>